<?xml version="1.0" encoding="UTF-8"?>
<svg xmlns="http://www.w3.org/2000/svg" xmlns:xlink="http://www.w3.org/1999/xlink" viewBox="0 0 100 100" width="100px" height="100px">
<g id="surface143044438">
<path style=" stroke:none;fill-rule:nonzero;fill:rgb(87.450981%,87.450981%,87.450981%);fill-opacity:1;" d="M 20.742188 2 C 20.445312 2.003906 20.167969 2.140625 19.980469 2.371094 C 19.792969 2.601562 19.71875 2.902344 19.777344 3.195312 L 24.144531 25.039062 L 4.171875 21.5625 C 3.769531 21.496094 3.367188 21.675781 3.152344 22.019531 C 2.933594 22.367188 2.953125 22.808594 3.191406 23.136719 L 17.246094 42.460938 L 5.589844 45.792969 C 5.246094 45.890625 4.984375 46.160156 4.894531 46.503906 C 4.804688 46.847656 4.902344 47.210938 5.15625 47.460938 L 17.371094 59.679688 L 7.125 67.367188 C 6.820312 67.59375 6.671875 67.972656 6.738281 68.347656 C 6.808594 68.722656 7.082031 69.023438 7.449219 69.125 L 19.28125 72.507812 L 14.292969 81.648438 C 14.113281 81.980469 14.132812 82.382812 14.34375 82.691406 C 14.554688 83.003906 14.921875 83.167969 15.296875 83.125 L 28.382812 81.488281 C 28.792969 82.511719 29.25 83.488281 29.761719 84.398438 C 33.664062 91.320312 41.179688 95 48.46875 95 C 55.175781 95 61.78125 91.785156 65.070312 85.101562 L 71.710938 86.824219 C 72.03125 86.90625 72.375 86.820312 72.625 86.597656 C 72.875 86.375 72.996094 86.042969 72.949219 85.710938 L 72.167969 80.25 L 83.207031 79.402344 C 83.539062 79.375 83.835938 79.1875 84 78.898438 C 84.164062 78.609375 84.171875 78.257812 84.023438 77.957031 L 78.902344 67.714844 L 88.199219 63.488281 C 88.523438 63.339844 88.746094 63.027344 88.78125 62.667969 C 88.8125 62.3125 88.648438 61.960938 88.355469 61.757812 L 77.605469 54.316406 L 91.976562 46.707031 C 92.316406 46.527344 92.519531 46.171875 92.507812 45.789062 C 92.496094 45.40625 92.265625 45.066406 91.914062 44.910156 L 76.0625 37.863281 L 84.976562 17.359375 C 85.128906 17.015625 85.070312 16.613281 84.832031 16.324219 C 84.589844 16.035156 84.207031 15.902344 83.835938 15.988281 L 60.742188 21.320312 L 58.988281 2.902344 C 58.953125 2.519531 58.695312 2.1875 58.332031 2.058594 C 57.96875 1.925781 57.5625 2.019531 57.285156 2.292969 L 42.972656 16.605469 L 21.3125 2.167969 C 21.144531 2.054688 20.945312 1.996094 20.742188 2 Z M 22.210938 5.171875 L 42.542969 18.726562 C 42.941406 18.992188 43.46875 18.9375 43.804688 18.601562 L 57.199219 5.207031 L 58.863281 22.644531 C 58.890625 22.929688 59.039062 23.191406 59.273438 23.359375 C 59.507812 23.527344 59.800781 23.589844 60.082031 23.523438 L 82.355469 18.382812 L 73.835938 37.976562 C 73.613281 38.480469 73.84375 39.066406 74.347656 39.289062 L 89.226562 45.902344 L 75.214844 53.320312 C 74.90625 53.480469 74.707031 53.792969 74.683594 54.140625 C 74.664062 54.492188 74.828125 54.824219 75.113281 55.023438 L 85.765625 62.398438 L 77.132812 66.324219 C 76.882812 66.4375 76.691406 66.644531 76.601562 66.902344 C 76.511719 67.15625 76.527344 67.4375 76.652344 67.683594 L 81.570312 77.523438 L 70.953125 78.339844 C 70.675781 78.359375 70.421875 78.496094 70.246094 78.710938 C 70.074219 78.925781 69.996094 79.203125 70.039062 79.480469 L 70.757812 84.511719 L 65.875 83.242188 C 66.578125 81.332031 67.171875 79.398438 67.675781 77.457031 C 68.234375 75.28125 68.667969 73.09375 69.007812 70.914062 C 72.386719 70.421875 75 67.511719 75 64 C 75 60.839844 72.890625 58.167969 70.003906 57.304688 C 70.003906 57.28125 70.003906 57.257812 70.003906 57.230469 C 70 56.3125 69.984375 55.402344 69.960938 54.503906 C 69.960938 54.496094 69.960938 54.488281 69.960938 54.476562 C 69.9375 53.578125 69.898438 52.6875 69.855469 51.808594 C 69.808594 50.921875 69.753906 50.046875 69.691406 49.183594 C 69.441406 45.742188 69.074219 42.523438 68.683594 39.632812 C 68.042969 34.871094 65.738281 30.835938 62.507812 27.75 C 62.046875 27.308594 61.566406 26.886719 61.070312 26.488281 C 61.070312 26.484375 61.070312 26.488281 61.070312 26.488281 C 60.570312 26.085938 60.058594 25.703125 59.53125 25.34375 C 59 24.984375 58.460938 24.640625 57.90625 24.324219 C 57.902344 24.324219 57.902344 24.324219 57.902344 24.324219 C 57.347656 24.007812 56.777344 23.707031 56.203125 23.433594 C 56.199219 23.433594 56.199219 23.433594 56.199219 23.433594 C 55.621094 23.160156 55.035156 22.90625 54.4375 22.675781 C 53.839844 22.445312 53.234375 22.238281 52.625 22.054688 C 52.625 22.050781 52.625 22.054688 52.625 22.054688 C 52.011719 21.867188 51.398438 21.710938 50.777344 21.574219 C 50.777344 21.570312 50.777344 21.574219 50.777344 21.574219 C 50.15625 21.433594 49.53125 21.320312 48.90625 21.234375 C 48.90625 21.230469 48.90625 21.234375 48.90625 21.234375 C 48.277344 21.144531 47.652344 21.082031 47.023438 21.042969 C 42 20.738281 36.953125 22.058594 33.039062 25.40625 C 31.078125 27.078125 29.421875 29.25 28.195312 31.941406 C 27.734375 32.949219 27.332031 34.03125 27 35.1875 C 26.445312 37.113281 26.078125 39.242188 25.929688 41.582031 C 25.921875 41.617188 25.796875 42.761719 25.648438 44.324219 C 25.597656 44.84375 25.558594 45.261719 25.503906 45.917969 C 25.449219 46.574219 25.40625 47.34375 25.355469 48.121094 C 25.292969 49.035156 25.230469 49.902344 25.179688 50.960938 C 25.15625 51.457031 25.132812 51.929688 25.113281 52.453125 C 25.101562 52.722656 25.09375 53 25.085938 53.277344 C 25.0625 53.964844 25.042969 54.65625 25.03125 55.378906 C 25.027344 55.484375 25.023438 55.578125 25.023438 55.683594 C 25.019531 55.863281 25.023438 56.054688 25.019531 56.238281 C 25.015625 56.59375 25.007812 56.941406 25.007812 57.304688 C 22.113281 58.164062 20 60.839844 20 64 C 20 67.441406 22.507812 70.308594 25.792969 70.882812 C 26.207031 73.925781 26.804688 76.878906 27.683594 79.558594 L 16.984375 80.898438 L 21.636719 72.371094 C 21.78125 72.101562 21.796875 71.785156 21.679688 71.503906 C 21.5625 71.222656 21.324219 71.011719 21.03125 70.929688 L 9.9375 67.757812 L 19.496094 60.589844 C 19.726562 60.414062 19.871094 60.148438 19.890625 59.859375 C 19.914062 59.570312 19.808594 59.285156 19.601562 59.082031 L 7.769531 47.25 L 19.171875 43.992188 C 19.484375 43.902344 19.734375 43.664062 19.839844 43.355469 C 19.945312 43.046875 19.894531 42.707031 19.703125 42.445312 L 6.261719 23.960938 L 25.242188 27.261719 C 25.566406 27.316406 25.898438 27.210938 26.128906 26.972656 C 26.359375 26.738281 26.457031 26.402344 26.394531 26.078125 Z M 26.230469 10.707031 C 26.082031 10.714844 25.945312 10.785156 25.855469 10.90625 C 25.765625 11.023438 25.730469 11.179688 25.765625 11.324219 L 26.398438 14.070312 C 26.4375 14.25 26.566406 14.394531 26.738281 14.449219 C 26.914062 14.503906 27.101562 14.460938 27.234375 14.335938 C 27.367188 14.210938 27.421875 14.023438 27.375 13.847656 L 26.742188 11.101562 C 26.691406 10.863281 26.476562 10.695312 26.230469 10.707031 Z M 27.570312 16.515625 C 27.417969 16.523438 27.277344 16.59375 27.1875 16.714844 C 27.097656 16.835938 27.066406 16.988281 27.101562 17.136719 L 28.703125 24.09375 C 28.765625 24.359375 29.035156 24.527344 29.300781 24.46875 C 29.570312 24.40625 29.738281 24.136719 29.675781 23.867188 L 28.078125 16.910156 C 28.027344 16.671875 27.8125 16.503906 27.566406 16.515625 Z M 45.183594 23.003906 C 45.753906 22.992188 46.328125 23.003906 46.898438 23.039062 C 50.34375 23.25 53.804688 24.296875 56.855469 26.042969 C 57.363281 26.332031 57.859375 26.644531 58.34375 26.972656 C 58.828125 27.300781 59.296875 27.648438 59.75 28.015625 C 59.75 28.015625 59.75 28.011719 59.75 28.015625 C 60.207031 28.378906 60.644531 28.765625 61.066406 29.164062 C 61.910156 29.964844 62.6875 30.835938 63.375 31.773438 C 65.097656 34.109375 66.289062 36.84375 66.699219 39.902344 C 67.375 44.910156 67.980469 50.890625 67.992188 57.265625 C 67.996094 57.71875 67.984375 58.183594 67.976562 58.640625 C 67.96875 59.3125 67.957031 59.988281 67.933594 60.671875 C 67.925781 60.945312 67.914062 61.222656 67.902344 61.5 C 67.902344 61.507812 67.902344 61.515625 67.898438 61.527344 C 67.871094 62.210938 67.835938 62.898438 67.792969 63.589844 C 67.789062 63.605469 67.789062 63.621094 67.789062 63.636719 C 67.78125 63.738281 67.773438 63.84375 67.765625 63.945312 C 67.757812 64.046875 67.75 64.152344 67.742188 64.257812 C 67.679688 65.085938 67.609375 65.917969 67.523438 66.753906 C 67.511719 66.839844 67.503906 66.921875 67.496094 67.007812 C 67.398438 67.910156 67.285156 68.816406 67.15625 69.722656 C 66.535156 74.058594 65.53125 78.410156 63.976562 82.621094 C 63.867188 82.910156 63.738281 83.207031 63.597656 83.523438 C 63.59375 83.535156 63.589844 83.550781 63.585938 83.5625 C 60.761719 90.019531 54.773438 93 48.46875 93 C 41.855469 93 35.011719 89.640625 31.503906 83.414062 C 30.898438 82.339844 30.371094 81.132812 29.910156 79.835938 C 29.820312 79.585938 29.734375 79.335938 29.652344 79.082031 C 29.574219 78.847656 29.496094 78.609375 29.425781 78.367188 C 29.359375 78.15625 29.296875 77.941406 29.234375 77.730469 C 29.144531 77.410156 29.054688 77.085938 28.972656 76.761719 C 28.933594 76.621094 28.898438 76.480469 28.863281 76.339844 C 28.757812 75.914062 28.65625 75.480469 28.5625 75.042969 C 28.546875 74.980469 28.535156 74.917969 28.523438 74.855469 C 28.464844 74.589844 28.414062 74.324219 28.363281 74.058594 C 28.203125 73.238281 28.054688 72.40625 27.929688 71.5625 C 27.761719 70.460938 27.621094 69.339844 27.503906 68.214844 C 27.453125 67.746094 27.425781 67.277344 27.386719 66.8125 C 27.332031 66.207031 27.273438 65.605469 27.234375 65.003906 C 27.179688 64.152344 27.140625 63.300781 27.105469 62.453125 C 27.097656 62.226562 27.082031 62 27.074219 61.777344 C 27.042969 60.890625 27.027344 60.015625 27.019531 59.148438 C 27.015625 58.957031 27.011719 58.765625 27.011719 58.574219 C 27.003906 57.777344 27.011719 57 27.019531 56.234375 C 27.023438 55.957031 27.023438 55.679688 27.03125 55.410156 C 27.042969 54.683594 27.0625 53.976562 27.085938 53.285156 C 27.09375 53.03125 27.101562 52.78125 27.113281 52.535156 C 27.132812 52 27.15625 51.496094 27.179688 50.992188 C 27.230469 49.980469 27.292969 49.117188 27.351562 48.234375 C 27.402344 47.476562 27.449219 46.644531 27.503906 46.003906 C 27.5625 45.273438 27.617188 44.730469 27.671875 44.175781 C 27.714844 43.742188 27.761719 43.160156 27.796875 42.851562 C 27.800781 42.824219 27.796875 42.832031 27.800781 42.804688 C 27.871094 42.160156 27.921875 41.773438 27.921875 41.773438 C 27.921875 41.75 27.925781 41.730469 27.925781 41.710938 C 28.320312 35.523438 30.28125 31.113281 33.085938 28.121094 C 33.488281 27.695312 33.902344 27.296875 34.335938 26.925781 C 37.371094 24.332031 41.199219 23.085938 45.183594 23.003906 Z M 12.683594 27.046875 C 12.496094 27.058594 12.335938 27.175781 12.257812 27.34375 C 12.183594 27.515625 12.210938 27.710938 12.324219 27.859375 L 17.457031 34.558594 C 17.566406 34.699219 17.742188 34.773438 17.921875 34.75 C 18.097656 34.726562 18.25 34.609375 18.320312 34.445312 C 18.386719 34.277344 18.359375 34.089844 18.25 33.949219 L 13.117188 27.25 C 13.027344 27.125 12.886719 27.050781 12.734375 27.046875 C 12.71875 27.046875 12.699219 27.046875 12.683594 27.046875 Z M 53.496094 29 C 53.449219 29 53.40625 29.007812 53.363281 29.019531 C 52.253906 29.335938 51.117188 29.578125 49.988281 29.757812 C 49.804688 29.777344 49.648438 29.898438 49.578125 30.070312 C 49.511719 30.238281 49.542969 30.433594 49.660156 30.578125 C 49.78125 30.71875 49.964844 30.78125 50.148438 30.742188 C 51.308594 30.558594 52.484375 30.308594 53.636719 29.980469 C 53.878906 29.914062 54.035156 29.675781 54 29.425781 C 53.964844 29.175781 53.75 28.992188 53.496094 29 Z M 38.460938 30 C 38.203125 30.015625 38 30.226562 37.992188 30.488281 C 37.988281 30.746094 38.179688 30.96875 38.4375 30.996094 C 38.4375 30.996094 42.269531 31.476562 46.96875 31.117188 C 47.152344 31.109375 47.320312 31.003906 47.402344 30.839844 C 47.484375 30.675781 47.46875 30.476562 47.363281 30.328125 C 47.257812 30.175781 47.074219 30.097656 46.890625 30.117188 C 42.304688 30.472656 38.5625 30.003906 38.5625 30.003906 C 38.53125 30 38.496094 29.996094 38.460938 30 Z M 57.304688 34.890625 C 55.285156 34.917969 53.097656 35.15625 50.761719 35.402344 C 45.652344 35.9375 39.917969 36.535156 33.378906 35.53125 C 32.027344 35.316406 30.738281 36.257812 30.53125 37.621094 C 30.320312 38.976562 31.261719 40.261719 32.617188 40.472656 C 35.460938 40.910156 38.175781 41.070312 40.738281 41.070312 C 44.65625 41.070312 48.207031 40.695312 51.28125 40.375 C 55.464844 39.933594 59.054688 39.601562 61.152344 40.355469 C 62.449219 40.820312 63.886719 40.140625 64.351562 38.847656 C 64.816406 37.550781 64.136719 36.113281 62.84375 35.648438 C 61.179688 35.050781 59.328125 34.863281 57.304688 34.890625 Z M 57.3125 35.90625 C 59.265625 35.878906 61.007812 36.050781 62.503906 36.589844 C 63.292969 36.871094 63.691406 37.722656 63.410156 38.507812 C 63.128906 39.292969 62.277344 39.695312 61.492188 39.414062 C 58.988281 38.515625 55.359375 38.9375 51.179688 39.378906 C 48.101562 39.699219 44.589844 40.066406 40.738281 40.066406 C 38.21875 40.066406 35.554688 39.910156 32.773438 39.480469 C 31.945312 39.355469 31.390625 38.597656 31.519531 37.769531 C 31.644531 36.949219 32.414062 36.390625 33.222656 36.515625 C 33.226562 36.515625 33.226562 36.515625 33.226562 36.515625 C 39.910156 37.542969 45.757812 36.929688 50.863281 36.394531 C 50.867188 36.394531 50.867188 36.394531 50.867188 36.394531 C 53.203125 36.148438 55.359375 35.929688 57.3125 35.902344 Z M 19.828125 36.375 C 19.644531 36.386719 19.480469 36.5 19.40625 36.667969 C 19.328125 36.839844 19.355469 37.035156 19.46875 37.179688 L 21.519531 39.855469 C 21.6875 40.078125 22 40.117188 22.21875 39.949219 C 22.4375 39.78125 22.480469 39.46875 22.3125 39.246094 L 20.261719 36.574219 C 20.164062 36.4375 20 36.363281 19.828125 36.371094 Z M 34.234375 42.84375 C 34.136719 42.84375 34.042969 42.867188 33.964844 42.917969 C 31.671875 44.320312 30.117188 46.808594 30.015625 49.664062 C 30.015625 49.726562 30.023438 49.789062 30.046875 49.847656 C 29.972656 50.683594 30.011719 51.550781 30.214844 52.441406 C 30.921875 55.582031 33.484375 58.0625 36.648438 58.65625 C 36.648438 58.65625 36.648438 58.65625 36.652344 58.65625 C 41.886719 59.644531 46.5 55.636719 46.5 50.558594 C 46.5 50.136719 46.449219 49.730469 46.386719 49.335938 C 46.4375 49.246094 46.457031 49.140625 46.445312 49.035156 C 46.175781 46.636719 44.878906 44.550781 43.003906 43.226562 C 42.777344 43.066406 42.464844 43.121094 42.308594 43.34375 C 42.148438 43.570312 42.199219 43.882812 42.425781 44.042969 C 43.882812 45.074219 44.839844 46.667969 45.230469 48.472656 C 43.054688 48.113281 40.878906 47.957031 38.691406 48.011719 C 38.628906 48.003906 38.566406 48 38.5 48 C 38.425781 48 38.347656 48.007812 38.273438 48.019531 C 38.25 48.019531 38.226562 48.019531 38.199219 48.019531 C 35.875 48.109375 33.546875 48.449219 31.210938 49.007812 C 31.515625 46.808594 32.671875 44.878906 34.484375 43.773438 C 34.675781 43.660156 34.769531 43.429688 34.710938 43.214844 C 34.652344 42.996094 34.457031 42.847656 34.234375 42.84375 Z M 53.234375 42.84375 C 53.136719 42.84375 53.042969 42.867188 52.964844 42.917969 C 50.671875 44.320312 49.117188 46.808594 49.015625 49.664062 C 49.015625 49.726562 49.023438 49.789062 49.046875 49.847656 C 48.972656 50.683594 49.011719 51.550781 49.214844 52.441406 C 49.921875 55.582031 52.484375 58.0625 55.648438 58.65625 C 55.648438 58.65625 55.648438 58.65625 55.652344 58.65625 C 60.886719 59.644531 65.5 55.636719 65.5 50.558594 C 65.5 50.136719 65.449219 49.730469 65.386719 49.335938 C 65.4375 49.246094 65.457031 49.140625 65.445312 49.035156 C 65.175781 46.636719 63.878906 44.550781 62.003906 43.226562 C 61.777344 43.066406 61.464844 43.121094 61.308594 43.34375 C 61.148438 43.570312 61.199219 43.882812 61.425781 44.042969 C 62.882812 45.074219 63.839844 46.667969 64.230469 48.472656 C 62.054688 48.113281 59.878906 47.957031 57.691406 48.011719 C 57.628906 48.003906 57.566406 48 57.5 48 C 57.425781 48 57.347656 48.007812 57.273438 48.019531 C 57.25 48.019531 57.226562 48.019531 57.199219 48.019531 C 54.875 48.109375 52.546875 48.449219 50.210938 49.007812 C 50.515625 46.808594 51.671875 44.878906 53.484375 43.773438 C 53.675781 43.660156 53.769531 43.429688 53.710938 43.214844 C 53.652344 42.996094 53.457031 42.847656 53.234375 42.84375 Z M 40.03125 49 C 41.820312 49.039062 43.605469 49.230469 45.386719 49.542969 C 45.441406 49.878906 45.5 50.21875 45.5 50.5625 C 45.5 55.03125 41.484375 58.550781 36.832031 57.675781 C 34.070312 57.15625 31.804688 54.964844 31.1875 52.21875 C 31.023438 51.488281 31.027344 50.789062 31.074219 50.097656 C 33.074219 49.601562 35.066406 49.257812 37.054688 49.097656 C 36.929688 49.550781 37.023438 50.035156 37.304688 50.40625 C 37.589844 50.78125 38.03125 51 38.5 51 C 38.984375 51 39.441406 50.761719 39.722656 50.367188 C 40.003906 49.96875 40.074219 49.460938 39.914062 49.003906 C 39.953125 49.003906 39.992188 49 40.03125 49 Z M 59.03125 49 C 60.820312 49.039062 62.605469 49.230469 64.386719 49.542969 C 64.441406 49.878906 64.5 50.21875 64.5 50.5625 C 64.5 55.03125 60.484375 58.550781 55.832031 57.675781 C 53.070312 57.15625 50.804688 54.964844 50.1875 52.21875 C 50.023438 51.488281 50.027344 50.789062 50.074219 50.097656 C 52.074219 49.601562 54.066406 49.257812 56.054688 49.097656 C 55.929688 49.550781 56.023438 50.035156 56.304688 50.40625 C 56.589844 50.78125 57.03125 51 57.5 51 C 57.984375 51 58.441406 50.761719 58.722656 50.367188 C 59.003906 49.96875 59.074219 49.460938 58.914062 49.003906 C 58.953125 49.003906 58.992188 49 59.03125 49 Z M 44.492188 58.992188 C 44.359375 58.996094 44.234375 59.050781 44.140625 59.144531 C 44.046875 59.238281 43.996094 59.367188 44 59.5 L 44 65.5 C 44 66.832031 44.332031 67.882812 44.878906 68.613281 C 45.429688 69.34375 46.207031 69.75 47 69.75 C 47.792969 69.75 48.570312 69.34375 49.117188 68.613281 C 49.667969 67.882812 50 66.832031 50 65.5 L 50 59.5 C 50.003906 59.320312 49.90625 59.152344 49.753906 59.0625 C 49.597656 58.96875 49.402344 58.96875 49.246094 59.0625 C 49.09375 59.152344 48.996094 59.320312 49 59.5 L 49 65.5 C 49 66.667969 48.707031 67.492188 48.316406 68.011719 C 47.929688 68.53125 47.457031 68.75 47 68.75 C 46.542969 68.75 46.070312 68.53125 45.679688 68.011719 C 45.292969 67.492188 45 66.667969 45 65.5 L 45 59.5 C 45.003906 59.363281 44.949219 59.234375 44.855469 59.136719 C 44.757812 59.042969 44.628906 58.988281 44.492188 58.992188 Z M 25.019531 59.492188 C 25.058594 62.480469 25.195312 65.589844 25.515625 68.671875 C 23.492188 68.035156 22 66.242188 22 64 C 22 61.945312 23.261719 60.261719 25.019531 59.492188 Z M 69.976562 59.496094 C 71.738281 60.265625 73 61.945312 73 64 C 73 66.296875 71.433594 68.125 69.332031 68.710938 C 69.332031 68.703125 69.332031 68.691406 69.332031 68.683594 C 69.574219 66.75 69.746094 64.828125 69.851562 62.929688 C 69.855469 62.917969 69.855469 62.902344 69.855469 62.890625 C 69.867188 62.703125 69.871094 62.519531 69.878906 62.335938 C 69.917969 61.566406 69.953125 60.796875 69.96875 60.039062 C 69.972656 59.96875 69.972656 59.898438 69.972656 59.828125 C 69.976562 59.714844 69.972656 59.605469 69.976562 59.496094 Z M 31.808594 59.699219 C 31.605469 59.707031 31.425781 59.839844 31.359375 60.035156 C 31.292969 60.226562 31.351562 60.441406 31.503906 60.574219 C 31.503906 60.574219 35.429688 64.066406 40.683594 61.964844 C 40.851562 61.898438 40.96875 61.75 40.996094 61.570312 C 41.019531 61.394531 40.949219 61.21875 40.808594 61.105469 C 40.667969 60.996094 40.480469 60.96875 40.3125 61.035156 C 35.570312 62.933594 32.175781 59.832031 32.175781 59.832031 C 32.074219 59.738281 31.941406 59.691406 31.808594 59.699219 Z M 62.515625 59.699219 C 62.386719 59.695312 62.261719 59.742188 62.167969 59.832031 C 62.167969 59.832031 58.769531 62.933594 54.027344 61.035156 C 53.859375 60.96875 53.671875 60.996094 53.53125 61.105469 C 53.390625 61.21875 53.320312 61.394531 53.34375 61.570312 C 53.371094 61.75 53.488281 61.898438 53.65625 61.964844 C 58.910156 64.066406 62.835938 60.574219 62.835938 60.574219 C 62.988281 60.4375 63.046875 60.222656 62.976562 60.027344 C 62.90625 59.832031 62.722656 59.703125 62.515625 59.699219 Z M 46.875 76.78125 C 40.113281 76.851562 35.292969 79.046875 35.292969 79.046875 C 35.125 79.117188 35.011719 79.273438 34.992188 79.453125 C 34.976562 79.632812 35.054688 79.808594 35.203125 79.914062 C 35.351562 80.015625 35.542969 80.03125 35.707031 79.957031 C 35.707031 79.957031 46.519531 75.046875 58.308594 79.960938 C 58.476562 80.042969 58.675781 80.023438 58.824219 79.914062 C 58.972656 79.804688 59.050781 79.621094 59.023438 79.4375 C 58.996094 79.253906 58.867188 79.101562 58.691406 79.039062 C 55.640625 77.765625 52.652344 77.128906 49.882812 76.894531 C 48.847656 76.804688 47.839844 76.769531 46.875 76.78125 Z M 46.875 76.78125 "/>
</g>
</svg>
